# xmcd
#
# Track frame offsets: 
#        264
#        13301
#        26514
#        40096
#        54162
#        65149
#        73843
#        92390
#        99053
#        110881
#        125273
#        137501
#        147168
#        163140
#
# Disc length: 2300 seconds
#
# Revision: 2
# Processed by: cddbd v1.5.2PL0 Copyright (c) Steve Scherf et al.
# Submitted via: ExactAudioCopy v1.0b3
#
DISCID=be08f90e
DTITLE=Triska - Lido
DYEAR=2007
DGENRE=Pop
TTITLE0=An Apple A Day
TTITLE1=It's Only Time
TTITLE2=For You
TTITLE3=Welcome To Grey
TTITLE4=Lido (I Need A Home By The Sea, 'Cause Of The Noise In My Ears
TTITLE4=)
TTITLE5=Couldn't Care Less
TTITLE6=Jazz Méditerranée
TTITLE7=Child In A White Dress
TTITLE8=Sorry, Not Big Enough
TTITLE9=Don't Stop
TTITLE10=Dreams Don't Burn
TTITLE11=The Mighty Dog
TTITLE12=Talk
TTITLE13=Leaving Now
EXTD=
EXTT0=
EXTT1=
EXTT2=
EXTT3=
EXTT4=
EXTT5=
EXTT6=
EXTT7=
EXTT8=
EXTT9=
EXTT10=
EXTT11=
EXTT12=
EXTT13=
PLAYORDER=
